<?xml version="1.0" encoding="UTF-8"?>
<svg id="Layer_1" data-name="Layer 1" xmlns="http://www.w3.org/2000/svg" viewBox="0 0 1020.47 737.01">
  <defs>
    <style>
      .cls-1 {
        fill: none;
        stroke: #000;
        stroke-miterlimit: 10;
        stroke-width: .5px;
      }
    </style>
  </defs>
  <circle class="cls-1" cx="320.07" cy="291.85" r="198.43"/>
  <g>
    <ellipse class="cls-1" cx="677.25" cy="281.26" rx="3.63" ry="4.84"/>
    <ellipse class="cls-1" cx="677.25" cy="354.73" rx="3.63" ry="4.84"/>
    <ellipse class="cls-1" cx="688.55" cy="336.16" rx="3.63" ry="4.84"/>
    <ellipse class="cls-1" cx="688.55" cy="299.83" rx="3.63" ry="4.84"/>
    <ellipse class="cls-1" cx="710.34" cy="262.7" rx="3.63" ry="4.84"/>
    <ellipse class="cls-1" cx="710.34" cy="373.29" rx="3.63" ry="4.84"/>
    <ellipse class="cls-1" cx="732.95" cy="262.7" rx="3.63" ry="4.84"/>
    <ellipse class="cls-1" cx="732.95" cy="373.29" rx="3.63" ry="4.84"/>
    <ellipse class="cls-1" cx="699.04" cy="281.26" rx="3.63" ry="4.84"/>
    <ellipse class="cls-1" cx="699.04" cy="354.73" rx="3.63" ry="4.84"/>
    <ellipse class="cls-1" cx="710.34" cy="336.16" rx="3.63" ry="4.84"/>
    <ellipse class="cls-1" cx="699.04" cy="318.4" rx="3.63" ry="4.84"/>
    <ellipse class="cls-1" cx="677.25" cy="318.4" rx="3.63" ry="4.84"/>
    <ellipse class="cls-1" cx="710.34" cy="299.83" rx="3.63" ry="4.84"/>
    <ellipse class="cls-1" cx="720.84" cy="281.26" rx="3.63" ry="4.84"/>
    <ellipse class="cls-1" cx="720.84" cy="354.73" rx="3.63" ry="4.84"/>
    <ellipse class="cls-1" cx="732.95" cy="336.16" rx="3.63" ry="4.84"/>
    <ellipse class="cls-1" cx="720.84" cy="318.4" rx="3.63" ry="4.84"/>
    <ellipse class="cls-1" cx="732.95" cy="299.83" rx="3.63" ry="4.84"/>
    <ellipse class="cls-1" cx="742.64" cy="281.26" rx="3.63" ry="4.84"/>
    <ellipse class="cls-1" cx="742.64" cy="354.73" rx="3.63" ry="4.84"/>
    <ellipse class="cls-1" cx="753.94" cy="336.16" rx="3.63" ry="4.84"/>
    <ellipse class="cls-1" cx="742.64" cy="318.4" rx="3.63" ry="4.84"/>
    <ellipse class="cls-1" cx="765.24" cy="318.4" rx="3.63" ry="4.84"/>
    <ellipse class="cls-1" cx="753.94" cy="299.83" rx="3.63" ry="4.84"/>
    <ellipse class="cls-1" cx="765.24" cy="281.26" rx="3.63" ry="4.84"/>
    <ellipse class="cls-1" cx="765.24" cy="354.73" rx="3.63" ry="4.84"/>
  </g>
  <circle class="cls-1" cx="42.52" cy="118.09" r="9.35"/>
  <circle class="cls-1" cx="978.25" cy="118.09" r="9.35"/>
  <circle class="cls-1" cx="978.25" cy="614.64" r="9.35"/>
  <circle class="cls-1" cx="42.52" cy="614.64" r="9.35"/>
  <circle class="cls-1" cx="247.99" cy="572.07" r="6.38"/>
  <circle class="cls-1" cx="704.95" cy="572.48" r="6.38"/>
  <circle class="cls-1" cx="247.99" cy="47.05" r="6.38"/>
  <circle class="cls-1" cx="408.38" cy="46.91" r="6.38"/>
  <circle class="cls-1" cx="803.25" cy="179.91" r="6.38"/>
  <circle class="cls-1" cx="160.69" cy="619.33" r="50.31"/>
  <circle class="cls-1" cx="904.68" cy="291.48" r="8.93"/>
  <circle class="cls-1" cx="904.68" cy="266.78" r="9.35"/>
  <circle class="cls-1" cx="699.15" cy="623.28" r="31.89"/>
  <circle class="cls-1" cx="609.44" cy="623.28" r="31.89"/>
  <circle class="cls-1" cx="841.14" cy="280.6" r="27.64"/>
  <circle class="cls-1" cx="841.14" cy="453.27" r="27.64"/>
  <circle class="cls-1" cx="841.14" cy="366.94" r="27.64"/>
  <rect class="cls-1" x="343.61" y="589.77" width="184.25" height="8.5" rx="4.25" ry="4.25"/>
  <circle class="cls-1" cx="335.11" cy="594.02" r="3.4"/>
  <circle class="cls-1" cx="536.37" cy="594.02" r="3.4"/>
  <rect class="cls-1" x="342.73" y="648.52" width="184.25" height="8.5" rx="4.25" ry="4.25"/>
  <circle class="cls-1" cx="334.23" cy="652.78" r="3.4"/>
  <circle class="cls-1" cx="535.49" cy="652.78" r="3.4"/>
  <rect class="cls-1" x="780.68" y="577.8" width="131.24" height="83.05" transform="translate(1692.62 1238.66) rotate(180)"/>
  <circle class="cls-1" cx="497.83" cy="485.79" r="8.65"/>
  <rect class="cls-1" x="375.36" y="506.02" width="114.24" height="23.53"/>
</svg>